<svg xmlns="http://www.w3.org/2000/svg" xmlns:xlink="http://www.w3.org/1999/xlink" width="390" height="844" viewBox="0 0 390 844"><!-- Generated by dom-to-svg from http://localhost:8977/prototype/profil.html?_j=14707 --><style/><g id="html1" mask="url(#mask-for-html11)"><g id="fond-2"><rect width="390" height="844" x="0" y="0" fill="#edebe6"/></g><mask id="mask-for-html11"><rect width="390" height="844" x="0" y="0" fill="#ffffff"/></mask><g id="body1"><g id="screen1" class="screen" mask="url(#mask-for-screen11)"><g id="fond-3"><rect width="390" height="844" x="0" y="0" fill="#faf9f6"/></g><mask id="mask-for-screen11"><rect width="390" height="844" x="0" y="0" fill="#ffffff"/><rect width="390" height="83" x="0" y="761" fill="#ffffff"/></mask><g id="header1" class="header"><g id="header-title1" class="header-title"><text color="#15171b" dominant-baseline="text-after-edge" font-family="Sora, sans-serif" font-size="20px" font-size-adjust="none" font-stretch="100%" font-style="normal" font-variant="normal" font-weight="700" direction="ltr" letter-spacing="-0.2px" text-decoration="none" text-anchor="start" text-rendering="auto" unicode-bidi="normal" word-spacing="0px" writing-mode="horizontal-tb" user-select="auto" fill="#15171b"><tspan xml:space="preserve" x="20" y="76" textLength="54.8125" lengthAdjust="spacingAndGlyphs">Profil</tspan></text></g></g><g id="scroll1" class="scroll" mask="url(#mask-for-scroll11)"><mask id="mask-for-scroll11"><rect width="390" height="754" x="0" y="90" fill="#ffffff"/></mask><g id="pad-x1" class="pad-x"><g id="avatar1" class="avatar"><g id="fond-4"><linearGradient x1="15%" y1="15%" x2="85%" y2="85%" id="linear-gradient1"><stop offset="0%" stop-color="#e11d33" stop-opacity="1"/><stop offset="100%" stop-color="#f7b500" stop-opacity="1"/></linearGradient><rect width="84" height="84" x="153" y="96" fill="url(#linear-gradient1)" rx="42" ry="42"/></g><text color="#ffffff" dominant-baseline="text-after-edge" font-family="Sora, sans-serif" font-size="26px" font-size-adjust="none" font-stretch="100%" font-style="normal" font-variant="normal" font-weight="800" direction="ltr" letter-spacing="normal" text-decoration="none" text-anchor="start" text-rendering="auto" unicode-bidi="isolate" word-spacing="0px" writing-mode="horizontal-tb" user-select="auto" fill="#ffffff"><tspan xml:space="preserve" x="172.03125" y="154.5" textLength="45.921875" lengthAdjust="spacingAndGlyphs">MD</tspan></text></g><g id="div1"><text color="#15171b" dominant-baseline="text-after-edge" font-family="Sora, sans-serif" font-size="18px" font-size-adjust="none" font-stretch="100%" font-style="normal" font-variant="normal" font-weight="800" direction="ltr" letter-spacing="normal" text-decoration="none" text-anchor="start" text-rendering="auto" unicode-bidi="isolate" word-spacing="0px" writing-mode="horizontal-tb" user-select="auto" fill="#15171b"><tspan xml:space="preserve" x="118.765625" y="214" textLength="152.46875" lengthAdjust="spacingAndGlyphs">Mamadou Diallo</tspan></text></g><g id="div2"><text color="#767b85" dominant-baseline="text-after-edge" font-family="Manrope, sans-serif" font-size="13px" font-size-adjust="none" font-stretch="100%" font-style="normal" font-variant="normal" font-weight="400" direction="ltr" letter-spacing="normal" text-decoration="none" text-anchor="start" text-rendering="auto" unicode-bidi="isolate" word-spacing="0px" writing-mode="horizontal-tb" user-select="auto" fill="#767b85"><tspan xml:space="preserve" x="115.140625" y="232" textLength="159.703125" lengthAdjust="spacingAndGlyphs">mamadou.diallo@mail.com</tspan></text></g></g><g id="pad-x2" class="pad-x"><g id="menu-item1" class="menu-item"><g id="fond-5"><line stroke-linecap="square" stroke="#e7e4dc" stroke-width="1px" x1="20" x2="370" y1="327" y2="327"/></g><g id="ic1" class="ic"><g id="fond-6"><rect width="40" height="40" x="24" y="272" fill="#fce7e9" rx="12" ry="12"/></g><g id="svg1" mask="url(#mask-for-svg11)"><mask id="mask-for-svg11"><rect width="19" height="19" x="34.5" y="282.5" fill="#ffffff"/></mask><g class="svg-content" transform="matrix(0.791667 0 0 0.791667 34.5 282.5)"><path d="M12 20s-7-4.4-9.3-9A5 5 0 0 1 12 6a5 5 0 0 1 9.3 5c-2.3 4.6-9.3 9-9.3 9Z" color="#15171b" fill="none" stroke="#e11d33" stroke-width="1.8px"/></g></g></g><g id="grow1" class="grow"><text color="#15171b" dominant-baseline="text-after-edge" font-family="Manrope, sans-serif" font-size="16px" font-size-adjust="none" font-stretch="100%" font-style="normal" font-variant="normal" font-weight="700" direction="ltr" letter-spacing="normal" text-decoration="none" text-anchor="start" text-rendering="auto" unicode-bidi="normal" word-spacing="0px" writing-mode="horizontal-tb" user-select="auto" fill="#15171b"><tspan xml:space="preserve" x="78" y="303" textLength="87.84375" lengthAdjust="spacingAndGlyphs">Mes favoris</tspan></text></g><g id="svg2" mask="url(#mask-for-svg21)"><mask id="mask-for-svg21"><rect width="16" height="16" x="350" y="284" fill="#ffffff"/></mask><g class="svg-content" transform="matrix(0.666667 0 0 0.666667 350 284)"><path d="m9 6 6 6-6 6" color="#15171b" fill="none" stroke="#9ca1aa" stroke-width="1.8px"/></g></g></g><g id="menu-item2" class="menu-item"><g id="fond-9"><line stroke-linecap="square" stroke="#e7e4dc" stroke-width="1px" x1="20" x2="370" y1="396" y2="396"/></g><g id="ic2" class="ic"><g id="fond-10"><rect width="40" height="40" x="24" y="341" fill="#fef3d6" rx="12" ry="12"/></g><g id="svg3" mask="url(#mask-for-svg31)"><mask id="mask-for-svg31"><rect width="19" height="19" x="34.5" y="351.5" fill="#ffffff"/></mask><g class="svg-content" transform="matrix(0.791667 0 0 0.791667 34.5 351.5)"><path d="M3 9a2 2 0 0 1 2-2h14a2 2 0 0 1 2 2v1.2a1.6 1.6 0 0 0 0 3.1V15a2 2 0 0 1-2 2H5a2 2 0 0 1-2-2v-1.7a1.6 1.6 0 0 0 0-3.1V9Z" color="#15171b" fill="none" stroke="#8a6400" stroke-width="1.8px"/></g></g></g><g id="grow2" class="grow"><text color="#15171b" dominant-baseline="text-after-edge" font-family="Manrope, sans-serif" font-size="16px" font-size-adjust="none" font-stretch="100%" font-style="normal" font-variant="normal" font-weight="700" direction="ltr" letter-spacing="normal" text-decoration="none" text-anchor="start" text-rendering="auto" unicode-bidi="normal" word-spacing="0px" writing-mode="horizontal-tb" user-select="auto" fill="#15171b"><tspan xml:space="preserve" x="78" y="372" textLength="83.734375" lengthAdjust="spacingAndGlyphs">Mes billets</tspan></text></g><g id="svg4" mask="url(#mask-for-svg41)"><mask id="mask-for-svg41"><rect width="16" height="16" x="350" y="353" fill="#ffffff"/></mask><g class="svg-content" transform="matrix(0.666667 0 0 0.666667 350 353)"><path d="m9 6 6 6-6 6" color="#15171b" fill="none" stroke="#9ca1aa" stroke-width="1.8px"/></g></g></g><g id="menu-item3" class="menu-item"><g id="fond-13"><line stroke-linecap="square" stroke="#e7e4dc" stroke-width="1px" x1="20" x2="370" y1="465" y2="465"/></g><g id="ic3" class="ic"><g id="fond-14"><rect width="40" height="40" x="24" y="410" fill="#e2f3ec" rx="12" ry="12"/></g><g id="svg5" mask="url(#mask-for-svg51)"><mask id="mask-for-svg51"><rect width="19" height="19" x="34.5" y="420.5" fill="#ffffff"/></mask><g class="svg-content" transform="matrix(0.791667 0 0 0.791667 34.5 420.5)"><path d="M6 17h12M8 17v-6a4 4 0 0 1 8 0v6" color="#15171b" fill="none" stroke="#12855b" stroke-width="1.8px"/><path d="M10.4 20a1.7 1.7 0 0 0 3.2 0" color="#15171b" fill="none" stroke="#12855b" stroke-width="1.8px"/></g></g></g><g id="grow3" class="grow"><text color="#15171b" dominant-baseline="text-after-edge" font-family="Manrope, sans-serif" font-size="16px" font-size-adjust="none" font-stretch="100%" font-style="normal" font-variant="normal" font-weight="700" direction="ltr" letter-spacing="normal" text-decoration="none" text-anchor="start" text-rendering="auto" unicode-bidi="normal" word-spacing="0px" writing-mode="horizontal-tb" user-select="auto" fill="#15171b"><tspan xml:space="preserve" x="78" y="441" textLength="93.078125" lengthAdjust="spacingAndGlyphs">Mes rappels</tspan></text></g><g id="svg6" mask="url(#mask-for-svg61)"><mask id="mask-for-svg61"><rect width="16" height="16" x="350" y="422" fill="#ffffff"/></mask><g class="svg-content" transform="matrix(0.666667 0 0 0.666667 350 422)"><path d="m9 6 6 6-6 6" color="#15171b" fill="none" stroke="#9ca1aa" stroke-width="1.8px"/></g></g></g><g id="menu-item4" class="menu-item"><g id="fond-17"><line stroke-linecap="square" stroke="#e7e4dc" stroke-width="1px" x1="20" x2="370" y1="534" y2="534"/></g><g id="ic4" class="ic"><g id="fond-18"><rect width="40" height="40" x="24" y="479" fill="#eae7fc" rx="12" ry="12"/></g><g id="svg7" mask="url(#mask-for-svg71)"><mask id="mask-for-svg71"><rect width="19" height="19" x="34.5" y="489.5" fill="#ffffff"/></mask><g class="svg-content" transform="matrix(0.791667 0 0 0.791667 34.5 489.5)"><circle cx="12" cy="12" r="3.2" color="#15171b" fill="none" stroke="#6c5ce7" stroke-width="1.8px"/><path d="M12 3v2.4M12 18.6V21M4.9 4.9l1.7 1.7M17.4 17.4l1.7 1.7M3 12h2.4M18.6 12H21M4.9 19.1l1.7-1.7M17.4 6.6l1.7-1.7" color="#15171b" fill="none" stroke="#6c5ce7" stroke-width="1.8px"/></g></g></g><g id="grow4" class="grow"><text color="#15171b" dominant-baseline="text-after-edge" font-family="Manrope, sans-serif" font-size="16px" font-size-adjust="none" font-stretch="100%" font-style="normal" font-variant="normal" font-weight="700" direction="ltr" letter-spacing="normal" text-decoration="none" text-anchor="start" text-rendering="auto" unicode-bidi="normal" word-spacing="0px" writing-mode="horizontal-tb" user-select="auto" fill="#15171b"><tspan xml:space="preserve" x="78" y="510" textLength="90.09375" lengthAdjust="spacingAndGlyphs">Paramètres</tspan></text></g><g id="svg8" mask="url(#mask-for-svg81)"><mask id="mask-for-svg81"><rect width="16" height="16" x="350" y="491" fill="#ffffff"/></mask><g class="svg-content" transform="matrix(0.666667 0 0 0.666667 350 491)"><path d="m9 6 6 6-6 6" color="#15171b" fill="none" stroke="#9ca1aa" stroke-width="1.8px"/></g></g></g><g id="menu-item5" class="menu-item"><g id="fond-21"><line stroke-linecap="square" stroke="#e7e4dc" stroke-width="1px" x1="20" x2="370" y1="603" y2="603"/></g><g id="ic5" class="ic"><g id="fond-22"><rect width="40" height="40" x="24" y="548" fill="#e4ecfd" rx="12" ry="12"/></g><g id="svg9" mask="url(#mask-for-svg91)"><mask id="mask-for-svg91"><rect width="19" height="19" x="34.5" y="558.5" fill="#ffffff"/></mask><g class="svg-content" transform="matrix(0.791667 0 0 0.791667 34.5 558.5)"><path d="M6 17h12M8 17v-6a4 4 0 0 1 8 0v6" color="#15171b" fill="none" stroke="#2e6be6" stroke-width="1.8px"/></g></g></g><g id="grow5" class="grow"><text color="#15171b" dominant-baseline="text-after-edge" font-family="Manrope, sans-serif" font-size="16px" font-size-adjust="none" font-stretch="100%" font-style="normal" font-variant="normal" font-weight="700" direction="ltr" letter-spacing="normal" text-decoration="none" text-anchor="start" text-rendering="auto" unicode-bidi="normal" word-spacing="0px" writing-mode="horizontal-tb" user-select="auto" fill="#15171b"><tspan xml:space="preserve" x="78" y="579" textLength="101.84375" lengthAdjust="spacingAndGlyphs">Notifications</tspan></text></g><g id="svg10" mask="url(#mask-for-svg101)"><mask id="mask-for-svg101"><rect width="16" height="16" x="350" y="560" fill="#ffffff"/></mask><g class="svg-content" transform="matrix(0.666667 0 0 0.666667 350 560)"><path d="m9 6 6 6-6 6" color="#15171b" fill="none" stroke="#9ca1aa" stroke-width="1.8px"/></g></g></g><g id="menu-item6" class="menu-item"><g id="ic6" class="ic"><g id="fond-25"><rect width="40" height="40" x="24" y="617" fill="#f1efe9" rx="12" ry="12"/></g><g id="svg11" mask="url(#mask-for-svg111)"><mask id="mask-for-svg111"><rect width="19" height="19" x="34.5" y="627.5" fill="#ffffff"/></mask><g class="svg-content" transform="matrix(0.791667 0 0 0.791667 34.5 627.5)"><path d="M9 21H5a2 2 0 0 1-2-2V5a2 2 0 0 1 2-2h4M16 17l5-5-5-5M21 12H9" color="#15171b" fill="none" stroke="#3a3d44" stroke-linecap="round" stroke-width="1.8px"/></g></g></g><g id="grow6" class="grow"><text color="#15171b" dominant-baseline="text-after-edge" font-family="Manrope, sans-serif" font-size="16px" font-size-adjust="none" font-stretch="100%" font-style="normal" font-variant="normal" font-weight="700" direction="ltr" letter-spacing="normal" text-decoration="none" text-anchor="start" text-rendering="auto" unicode-bidi="normal" word-spacing="0px" writing-mode="horizontal-tb" user-select="auto" fill="#15171b"><tspan xml:space="preserve" x="78" y="648" textLength="102.140625" lengthAdjust="spacingAndGlyphs">Déconnexion</tspan></text></g></g></g></g><g id="tabbar1" class="tabbar"><g id="fond-27"><rect width="390" height="83" x="0" y="761" fill="#ffffff"/><line stroke-linecap="square" stroke="#e7e4dc" stroke-width="1px" x1="0" x2="390" y1="761" y2="761"/></g><g id="tab-item1" class="tab-item"><g id="svg12" mask="url(#mask-for-svg121)"><mask id="mask-for-svg121"><rect width="23" height="23" x="27.5" y="773" fill="#ffffff"/></mask><g class="svg-content" transform="matrix(0.958333 0 0 0.958333 27.5 773)"><path d="M3 11.5 12 4l9 7.5" color="#9ca1aa" fill="none" stroke="#9ca1aa" stroke-linecap="round" stroke-linejoin="round" stroke-width="1.8px"/><path d="M5.5 10v9a1 1 0 0 0 1 1H10v-5.5a1 1 0 0 1 1-1h2a1 1 0 0 1 1 1V20h3.5a1 1 0 0 0 1-1v-9" color="#9ca1aa" fill="none" stroke="#9ca1aa" stroke-linecap="round" stroke-linejoin="round" stroke-width="1.8px"/></g></g><g id="span1"><text color="#9ca1aa" dominant-baseline="text-after-edge" font-family="Manrope, sans-serif" font-size="10.5px" font-size-adjust="none" font-stretch="100%" font-style="normal" font-variant="normal" font-weight="600" direction="ltr" letter-spacing="normal" text-decoration="none" text-anchor="start" text-rendering="auto" unicode-bidi="normal" word-spacing="0px" writing-mode="horizontal-tb" user-select="auto" fill="#9ca1aa"><tspan xml:space="preserve" x="20.5" y="813" textLength="36.984375" lengthAdjust="spacingAndGlyphs">Accueil</tspan></text></g></g><g id="tab-item2" class="tab-item"><g id="svg13" mask="url(#mask-for-svg131)"><mask id="mask-for-svg131"><rect width="23" height="23" x="105.5" y="773" fill="#ffffff"/></mask><g class="svg-content" transform="matrix(0.958333 0 0 0.958333 105.5 773)"><circle cx="11" cy="11" r="6.5" color="#9ca1aa" fill="none" stroke="#9ca1aa" stroke-linecap="round" stroke-linejoin="round" stroke-width="1.8px"/><path d="m20 20-4.3-4.3" color="#9ca1aa" fill="none" stroke="#9ca1aa" stroke-linecap="round" stroke-linejoin="round" stroke-width="1.8px"/></g></g><g id="span2"><text color="#9ca1aa" dominant-baseline="text-after-edge" font-family="Manrope, sans-serif" font-size="10.5px" font-size-adjust="none" font-stretch="100%" font-style="normal" font-variant="normal" font-weight="600" direction="ltr" letter-spacing="normal" text-decoration="none" text-anchor="start" text-rendering="auto" unicode-bidi="normal" word-spacing="0px" writing-mode="horizontal-tb" user-select="auto" fill="#9ca1aa"><tspan xml:space="preserve" x="96.171875" y="813" textLength="41.65625" lengthAdjust="spacingAndGlyphs">Explorer</tspan></text></g></g><g id="tab-item3" class="tab-item"><g id="svg14" mask="url(#mask-for-svg141)"><mask id="mask-for-svg141"><rect width="23" height="23" x="183.5" y="773" fill="#ffffff"/></mask><g class="svg-content" transform="matrix(0.958333 0 0 0.958333 183.5 773)"><path d="M12 21s7-6.6 7-12a7 7 0 0 0-14 0c0 5.4 7 12 7 12Z" color="#9ca1aa" fill="none" stroke="#9ca1aa" stroke-linecap="round" stroke-linejoin="round" stroke-width="1.8px"/><circle cx="12" cy="9" r="2.4" color="#9ca1aa" fill="none" stroke="#9ca1aa" stroke-linecap="round" stroke-linejoin="round" stroke-width="1.8px"/></g></g><g id="span3"><text color="#9ca1aa" dominant-baseline="text-after-edge" font-family="Manrope, sans-serif" font-size="10.5px" font-size-adjust="none" font-stretch="100%" font-style="normal" font-variant="normal" font-weight="600" direction="ltr" letter-spacing="normal" text-decoration="none" text-anchor="start" text-rendering="auto" unicode-bidi="normal" word-spacing="0px" writing-mode="horizontal-tb" user-select="auto" fill="#9ca1aa"><tspan xml:space="preserve" x="180.921875" y="813" textLength="28.15625" lengthAdjust="spacingAndGlyphs">Carte</tspan></text></g></g><g id="tab-item4" class="tab-item"><g id="svg15" mask="url(#mask-for-svg151)"><mask id="mask-for-svg151"><rect width="23" height="23" x="261.5" y="773" fill="#ffffff"/></mask><g class="svg-content" transform="matrix(0.958333 0 0 0.958333 261.5 773)"><path d="M3 9a2 2 0 0 1 2-2h14a2 2 0 0 1 2 2v1.2a1.6 1.6 0 0 0 0 3.1V15a2 2 0 0 1-2 2H5a2 2 0 0 1-2-2v-1.7a1.6 1.6 0 0 0 0-3.1V9Z" color="#9ca1aa" fill="none" stroke="#9ca1aa" stroke-linecap="round" stroke-linejoin="round" stroke-width="1.8px"/><path d="M14 7v10" stroke-dasharray="2.2px, 2.2px" color="#9ca1aa" fill="none" stroke="#9ca1aa" stroke-linecap="round" stroke-linejoin="round" stroke-width="1.8px"/></g></g><g id="span4"><text color="#9ca1aa" dominant-baseline="text-after-edge" font-family="Manrope, sans-serif" font-size="10.5px" font-size-adjust="none" font-stretch="100%" font-style="normal" font-variant="normal" font-weight="600" direction="ltr" letter-spacing="normal" text-decoration="none" text-anchor="start" text-rendering="auto" unicode-bidi="normal" word-spacing="0px" writing-mode="horizontal-tb" user-select="auto" fill="#9ca1aa"><tspan xml:space="preserve" x="257.375" y="813" textLength="31.234375" lengthAdjust="spacingAndGlyphs">Billets</tspan></text></g></g><g id="tab-item5" class="tab-item active"><g id="svg16" mask="url(#mask-for-svg161)"><mask id="mask-for-svg161"><rect width="23" height="23" x="339.5" y="773" fill="#ffffff"/></mask><g class="svg-content" transform="matrix(0.958333 0 0 0.958333 339.5 773)"><circle cx="12" cy="8" r="3.6" color="#e11d33" fill="none" stroke="#e11d33" stroke-linecap="round" stroke-linejoin="round" stroke-width="1.8px"/><path d="M4.5 20c1.6-3.6 4.4-5.4 7.5-5.4s5.9 1.8 7.5 5.4" color="#e11d33" fill="none" stroke="#e11d33" stroke-linecap="round" stroke-linejoin="round" stroke-width="1.8px"/></g></g><g id="span5"><text color="#e11d33" dominant-baseline="text-after-edge" font-family="Manrope, sans-serif" font-size="10.5px" font-size-adjust="none" font-stretch="100%" font-style="normal" font-variant="normal" font-weight="600" direction="ltr" letter-spacing="normal" text-decoration="none" text-anchor="start" text-rendering="auto" unicode-bidi="normal" word-spacing="0px" writing-mode="horizontal-tb" user-select="auto" fill="#e11d33"><tspan xml:space="preserve" x="337.71875" y="813" textLength="26.546875" lengthAdjust="spacingAndGlyphs">Profil</tspan></text></g></g></g></g></g></g></svg>