<svg xmlns="http://www.w3.org/2000/svg" xmlns:xlink="http://www.w3.org/1999/xlink" width="390" height="844" viewBox="0 0 390 844"><!-- Generated by dom-to-svg from http://localhost:8977/wireframe/confirmation.html?_j=23504 --><style/><g id="html1" mask="url(#mask-for-html11)"><g id="fond-2"><rect width="390" height="844" x="0" y="0" fill="#edebe6"/></g><mask id="mask-for-html11"><rect width="390" height="844" x="0" y="0" fill="#ffffff"/></mask><g id="body1"><g id="screen1" class="screen" mask="url(#mask-for-screen11)"><g id="fond-3"><rect width="390" height="844" x="0" y="0" fill="#f1f1f1" stroke="#d8d8d8" stroke-width="1px"/></g><mask id="mask-for-screen11"><rect width="390" height="844" x="0" y="0" fill="#ffffff"/></mask><g id="scroll1" class="scroll pad-x" mask="url(#mask-for-scroll11)"><mask id="mask-for-scroll11"><rect width="388" height="696" x="1" y="1" fill="#ffffff"/></mask><g id="check-circle1" class="check-circle"><g id="fond-4"><rect width="76" height="76" x="157" y="61" fill="#000000" stroke="#3d3d3d" stroke-width="2px" rx="38" ry="38" fill-opacity="0"/></g><g id="svg1" mask="url(#mask-for-svg11)"><mask id="mask-for-svg11"><rect width="34" height="34" x="178" y="82" fill="#ffffff"/></mask><g class="svg-content" transform="matrix(1.41667 0 0 1.41667 178 82)"><path d="m5 13 4 4 10-10" color="#222222" fill="none" stroke="#222222" stroke-width="2.2px"/></g></g></g><g id="h11"><text color="#222222" dominant-baseline="text-after-edge" font-family="Sora, sans-serif" font-size="21px" font-size-adjust="none" font-stretch="100%" font-style="normal" font-variant="normal" font-weight="700" direction="ltr" letter-spacing="normal" text-decoration="none" text-anchor="start" text-rendering="auto" unicode-bidi="isolate" word-spacing="0px" writing-mode="horizontal-tb" user-select="auto" fill="#222222"><tspan xml:space="preserve" x="71.703125" y="181" textLength="246.59375" lengthAdjust="spacingAndGlyphs">Réservation confirmée</tspan></text></g><g id="p1"><text color="#5b5b5b" dominant-baseline="text-after-edge" font-family="Manrope, sans-serif" font-size="13.5px" font-size-adjust="none" font-stretch="100%" font-style="normal" font-variant="normal" font-weight="400" direction="ltr" letter-spacing="normal" text-decoration="none" text-anchor="start" text-rendering="auto" unicode-bidi="isolate" word-spacing="0px" writing-mode="horizontal-tb" user-select="auto" fill="#5b5b5b"><tspan xml:space="preserve" x="63.515625" y="205" textLength="262.953125" lengthAdjust="spacingAndGlyphs">Votre billet a été envoyé par e-mail et SMS.</tspan></text></g><g id="ticket-box1" class="ticket-box"><g id="fond-6"><rect width="348" height="295" x="21" y="227" fill="#000000" stroke="#c9c9c9" stroke-width="1px" stroke-dasharray="1" rx="10" ry="10" fill-opacity="0"/></g><g id="div1"><text color="#7a7a7a" dominant-baseline="text-after-edge" font-family="Manrope, sans-serif" font-size="12px" font-size-adjust="none" font-stretch="100%" font-style="normal" font-variant="normal" font-weight="400" direction="ltr" letter-spacing="normal" text-decoration="none" text-anchor="start" text-rendering="auto" unicode-bidi="isolate" word-spacing="0px" writing-mode="horizontal-tb" user-select="auto" fill="#7a7a7a"><tspan xml:space="preserve" x="143.078125" y="265" textLength="103.828125" lengthAdjust="spacingAndGlyphs">Référence du billet</tspan></text></g><g id="div2"><text color="#222222" dominant-baseline="text-after-edge" font-family="Sora, sans-serif" font-size="18px" font-size-adjust="none" font-stretch="100%" font-style="normal" font-variant="normal" font-weight="800" direction="ltr" letter-spacing="1px" text-decoration="none" text-anchor="start" text-rendering="auto" unicode-bidi="isolate" word-spacing="0px" writing-mode="horizontal-tb" user-select="auto" fill="#222222"><tspan xml:space="preserve" x="113.984375" y="289" textLength="162.015625" lengthAdjust="spacingAndGlyphs">EVG-2610-7743</tspan></text></g><g id="qr1" class="qr"><g id="fond-7"><rect width="150" height="150" x="120" y="303" fill="#000000" stroke="#c9c9c9" stroke-width="1px" rx="8" ry="8" fill-opacity="0"/></g><g id="i1"><g id="fond-8"><rect width="15.703125" height="15.703125" x="131" y="314" fill="#2b2b2b" rx="1" ry="1"/></g></g><g id="i2"><g id="fond-9"><rect width="15.71875" height="15.703125" x="149.703125" y="314" fill="#2b2b2b" rx="1" ry="1"/></g></g><g id="i3"><g id="fond-10"><rect width="15.703125" height="15.703125" x="187.140625" y="314" fill="#2b2b2b" rx="1" ry="1"/></g></g><g id="i4"><g id="fond-11"><rect width="15.71875" height="15.703125" x="205.84375" y="314" fill="#2b2b2b" rx="1" ry="1"/></g></g><g id="i5"><g id="fond-12"><rect width="15.71875" height="15.703125" x="243.28125" y="314" fill="#2b2b2b" rx="1" ry="1"/></g></g><g id="i6"><g id="fond-13"><rect width="15.71875" height="15.71875" x="149.703125" y="332.703125" fill="#2b2b2b" rx="1" ry="1"/></g></g><g id="i7"><g id="fond-14"><rect width="15.71875" height="15.71875" x="168.421875" y="332.703125" fill="#2b2b2b" rx="1" ry="1"/></g></g><g id="i8"><g id="fond-15"><rect width="15.71875" height="15.71875" x="205.84375" y="332.703125" fill="#2b2b2b" rx="1" ry="1"/></g></g><g id="i9"><g id="fond-16"><rect width="15.71875" height="15.71875" x="243.28125" y="332.703125" fill="#2b2b2b" rx="1" ry="1"/></g></g><g id="i10"><g id="fond-17"><rect width="15.703125" height="15.71875" x="131" y="351.421875" fill="#2b2b2b" rx="1" ry="1"/></g></g><g id="i11"><g id="fond-18"><rect width="15.71875" height="15.71875" x="168.421875" y="351.421875" fill="#2b2b2b" rx="1" ry="1"/></g></g><g id="i12"><g id="fond-19"><rect width="15.703125" height="15.71875" x="187.140625" y="351.421875" fill="#2b2b2b" rx="1" ry="1"/></g></g><g id="i13"><g id="fond-20"><rect width="15.71875" height="15.71875" x="205.84375" y="351.421875" fill="#2b2b2b" rx="1" ry="1"/></g></g><g id="i14"><g id="fond-21"><rect width="15.71875" height="15.71875" x="224.5625" y="351.421875" fill="#2b2b2b" rx="1" ry="1"/></g></g><g id="i15"><g id="fond-22"><rect width="15.703125" height="15.703125" x="131" y="370.140625" fill="#2b2b2b" rx="1" ry="1"/></g></g><g id="i16"><g id="fond-23"><rect width="15.71875" height="15.703125" x="149.703125" y="370.140625" fill="#2b2b2b" rx="1" ry="1"/></g></g><g id="i17"><g id="fond-24"><rect width="15.703125" height="15.703125" x="187.140625" y="370.140625" fill="#2b2b2b" rx="1" ry="1"/></g></g><g id="i18"><g id="fond-25"><rect width="15.71875" height="15.703125" x="224.5625" y="370.140625" fill="#2b2b2b" rx="1" ry="1"/></g></g><g id="i19"><g id="fond-26"><rect width="15.71875" height="15.703125" x="243.28125" y="370.140625" fill="#2b2b2b" rx="1" ry="1"/></g></g><g id="i20"><g id="fond-27"><rect width="15.71875" height="15.71875" x="149.703125" y="388.84375" fill="#2b2b2b" rx="1" ry="1"/></g></g><g id="i21"><g id="fond-28"><rect width="15.71875" height="15.71875" x="168.421875" y="388.84375" fill="#2b2b2b" rx="1" ry="1"/></g></g><g id="i22"><g id="fond-29"><rect width="15.71875" height="15.71875" x="205.84375" y="388.84375" fill="#2b2b2b" rx="1" ry="1"/></g></g><g id="i23"><g id="fond-30"><rect width="15.71875" height="15.71875" x="224.5625" y="388.84375" fill="#2b2b2b" rx="1" ry="1"/></g></g><g id="i24"><g id="fond-31"><rect width="15.703125" height="15.71875" x="131" y="407.5625" fill="#2b2b2b" rx="1" ry="1"/></g></g><g id="i25"><g id="fond-32"><rect width="15.71875" height="15.71875" x="168.421875" y="407.5625" fill="#2b2b2b" rx="1" ry="1"/></g></g><g id="i26"><g id="fond-33"><rect width="15.703125" height="15.71875" x="187.140625" y="407.5625" fill="#2b2b2b" rx="1" ry="1"/></g></g><g id="i27"><g id="fond-34"><rect width="15.71875" height="15.71875" x="243.28125" y="407.5625" fill="#2b2b2b" rx="1" ry="1"/></g></g><g id="i28"><g id="fond-35"><rect width="15.703125" height="15.71875" x="131" y="426.28125" fill="#2b2b2b" rx="1" ry="1"/></g></g><g id="i29"><g id="fond-36"><rect width="15.71875" height="15.71875" x="149.703125" y="426.28125" fill="#2b2b2b" rx="1" ry="1"/></g></g><g id="i30"><g id="fond-37"><rect width="15.703125" height="15.71875" x="187.140625" y="426.28125" fill="#2b2b2b" rx="1" ry="1"/></g></g><g id="i31"><g id="fond-38"><rect width="15.71875" height="15.71875" x="205.84375" y="426.28125" fill="#2b2b2b" rx="1" ry="1"/></g></g><g id="i32"><g id="fond-39"><rect width="15.71875" height="15.71875" x="243.28125" y="426.28125" fill="#2b2b2b" rx="1" ry="1"/></g></g></g><g id="div3"><g id="card-meta1" class="card-meta"><g id="svg2" mask="url(#mask-for-svg21)"><mask id="mask-for-svg21"><rect width="13" height="13" x="42" y="469" fill="#ffffff"/></mask><g class="svg-content" transform="matrix(0.541667 0 0 0.541667 42 469)"><rect x="3" y="5" width="18" height="16" rx="2" color="#7a7a7a" fill="none" stroke="#7a7a7a" stroke-width="1.8px"/><path d="M3 10h18M8 3v4M16 3v4" color="#7a7a7a" fill="none" stroke="#7a7a7a" stroke-width="1.8px"/></g></g><text color="#7a7a7a" dominant-baseline="text-after-edge" font-family="Manrope, sans-serif" font-size="12.5px" font-size-adjust="none" font-stretch="100%" font-style="normal" font-variant="normal" font-weight="400" direction="ltr" letter-spacing="normal" text-decoration="none" text-anchor="start" text-rendering="auto" unicode-bidi="isolate" word-spacing="0px" writing-mode="horizontal-tb" user-select="auto" fill="#7a7a7a"><tspan xml:space="preserve" x="61" y="484" textLength="182.78125" lengthAdjust="spacingAndGlyphs">Samedi 12 octobre 2026 · 20h00</tspan></text></g><g id="card-meta2" class="card-meta"><g id="svg3" mask="url(#mask-for-svg31)"><mask id="mask-for-svg31"><rect width="13" height="13" x="42" y="486" fill="#ffffff"/></mask><g class="svg-content" transform="matrix(0.541667 0 0 0.541667 42 486)"><path d="M12 21s7-6.6 7-12a7 7 0 0 0-14 0c0 5.4 7 12 7 12Z" color="#7a7a7a" fill="none" stroke="#7a7a7a" stroke-width="1.8px"/><circle cx="12" cy="9" r="2.2" color="#7a7a7a" fill="none" stroke="#7a7a7a" stroke-width="1.8px"/></g></g><text color="#7a7a7a" dominant-baseline="text-after-edge" font-family="Manrope, sans-serif" font-size="12.5px" font-size-adjust="none" font-stretch="100%" font-style="normal" font-variant="normal" font-weight="400" direction="ltr" letter-spacing="normal" text-decoration="none" text-anchor="start" text-rendering="auto" unicode-bidi="isolate" word-spacing="0px" writing-mode="horizontal-tb" user-select="auto" fill="#7a7a7a"><tspan xml:space="preserve" x="61" y="501" textLength="185.984375" lengthAdjust="spacingAndGlyphs">Institut Franco-Guinéen, Kaloum</tspan></text></g></g></g></g><g id="bottom-bar1" class="bottom-bar"><g id="fond-42"><rect width="388" height="146" x="1" y="697" fill="#ffffff"/></g><g id="btn1" class="btn btn-primary"><g id="fond-43"><rect width="348" height="52" x="21" y="697" fill="#4a4a4a" rx="6" ry="6"/></g><text color="#ffffff" dominant-baseline="text-after-edge" font-family="Manrope, sans-serif" font-size="15px" font-size-adjust="none" font-stretch="100%" font-style="normal" font-variant="normal" font-weight="700" direction="ltr" letter-spacing="normal" text-decoration="none" text-anchor="start" text-rendering="auto" unicode-bidi="normal" word-spacing="0px" writing-mode="horizontal-tb" user-select="auto" fill="#ffffff"><tspan xml:space="preserve" x="143.203125" y="733.5" textLength="103.578125" lengthAdjust="spacingAndGlyphs">Voir mon billet</tspan></text></g><g id="btn2" class="btn btn-secondary"><g id="fond-44"><rect width="348" height="52" x="21" y="761" fill="#ffffff" stroke="#c9c9c9" stroke-width="1px" rx="6" ry="6"/></g><text color="#222222" dominant-baseline="text-after-edge" font-family="Manrope, sans-serif" font-size="15px" font-size-adjust="none" font-stretch="100%" font-style="normal" font-variant="normal" font-weight="700" direction="ltr" letter-spacing="normal" text-decoration="none" text-anchor="start" text-rendering="auto" unicode-bidi="normal" word-spacing="0px" writing-mode="horizontal-tb" user-select="auto" fill="#222222"><tspan xml:space="preserve" x="108.96875" y="797.5" textLength="172.046875" lengthAdjust="spacingAndGlyphs">Retour aux événements</tspan></text></g></g></g></g></g></svg>